Coordinates
version=1
nRows=9
nColumns=42
inDegrees=yes

Units are S.I. units (second, meters, Newtons, ...)
If the header above contains a line with 'inDegrees', this indicates whether rotational values are in degrees (yes) or radians (no).

endheader
time	pelvis_tilt	pelvis_list	pelvis_rotation	pelvis_tx	pelvis_ty	pelvis_tz	hip_flexion_r	hip_adduction_r	hip_rotation_r	knee_angle_r	knee_adduction_r	knee_angle_r_beta	ankle_angle_r	subtalar_angle_r	mtp_angle_r	hip_flexion_l	hip_adduction_l	hip_rotation_l	knee_angle_l	knee_adduction_l	knee_angle_l_beta	ankle_angle_l	subtalar_angle_l	mtp_angle_l	lumbar_extension	lumbar_bending	lumbar_rotation	arm_flex_r	arm_add_r	arm_rot_r	elbow_flex_r	pro_sup_r	wrist_flex_r	wrist_dev_r	arm_flex_l	arm_add_l	arm_rot_l	elbow_flex_l	pro_sup_l	wrist_flex_l	wrist_dev_l
      0.00000000	      3.27557249	     -0.10137559	     -1.06800675	     -2.10642844	      0.97550994	      0.26721657	     15.44575813	     -6.87421330	     -6.76265763	     37.72974270	      6.62041771	      0.65850824	      9.77112104	      2.94710645	     -9.59248126	     -6.88167512	      1.64181327	     -5.43927341	      3.35046142	      0.14710774	      0.05847658	      9.08787514	     16.28898852	     -9.59248126	     -8.60373257	      0.21229883	     -2.58091973	     -8.88916003	    -12.64464034	     10.09825536	     28.73340885	     90.00000001	      0.00000000	      0.00000000	      7.97530280	    -17.91331608	     21.59836519	     31.86748140	     90.00000001	      0.00000000	      0.00000000
      0.01000000	      3.16637362	      0.07440094	     -1.10093990	     -2.10104901	      0.97478653	      0.26718812	     15.98701546	     -7.03326758	     -7.27947117	     36.54570575	      6.43280583	      0.63784289	      9.79511022	      3.03019276	     -9.57276623	     -7.11363382	      1.89097381	     -5.55931539	      3.35673842	      0.07200405	      0.05858614	      9.36542189	     16.28161929	     -9.57276623	     -8.44417614	      0.10116945	     -2.55313789	     -9.16056489	    -12.60235928	     10.11204804	     28.60351478	     90.00000001	      0.00000000	      0.00000000	      8.27513220	    -17.96301435	     21.50740649	     32.23181589	     90.00000001	      0.00000000	      0.00000000
      0.02000000	      3.20878014	      0.00103556	     -0.89767929	     -2.09408705	      0.97413967	      0.26711330	     16.18633250	     -6.96068034	     -8.01825734	     34.65359424	      6.36167733	      0.60481932	      9.80459795	      3.58837905	     -9.53293040	     -7.66311761	      1.81697364	     -5.31412294	      3.26813261	      0.02304920	      0.05703967	      9.90893841	     16.53025070	     -9.53293040	     -8.44297482	      0.31053518	     -2.77558660	     -9.39070266	    -12.52774835	     10.06425722	     28.25516217	     90.00000001	      0.00000000	      0.00000000	      8.50476737	    -18.09224846	     21.37577166	     33.00216508	     90.00000001	      0.00000000	      0.00000000
      0.03000000	      3.56173394	     -0.18146254	     -0.69064538	     -2.08567462	      0.97361804	      0.26740725	     16.04903494	     -6.65341224	     -9.27534297	     32.41626619	      5.91167754	      0.56577058	      9.80953247	      4.26594613	     -9.45980927	     -8.66851136	      1.53484547	     -5.35137124	      3.15343405	      0.12161294	      0.05503781	     10.42792424	     16.79416211	     -9.45980927	     -8.75888414	      0.61372019	     -2.97378416	     -9.65229666	    -12.41273911	      9.90637121	     27.91906615	     90.00000001	      0.00000000	      0.00000000	      8.83160968	    -18.26473766	     21.30005730	     33.80885771	     90.00000001	      0.00000000	      0.00000000
      0.04000000	      3.36919234	      0.19503587	     -0.77966083	     -2.07687061	      0.97210058	      0.26759184	     16.87594582	     -6.98695456	    -10.13531195	     30.50783536	      5.67776809	      0.53246217	      9.73566984	      4.42568837	     -9.44209237	     -9.02187536	      1.99171778	     -5.65752302	      3.19703800	      0.07277687	      0.05579884	     10.81710764	     16.73427236	     -9.44209237	     -8.47942506	      0.31614812	     -2.84008409	    -10.12855117	    -12.32774930	      9.93618193	     27.71883460	     90.00000001	      0.00000000	      0.00000000	      9.30462932	    -18.32811923	     21.19249193	     34.38886278	     90.00000001	      0.00000000	      0.00000000
      0.05000000	      3.83291177	     -0.17222261	     -0.41695380	     -2.06704651	      0.97146491	      0.26787313	     16.28861795	     -6.47445252	    -11.12568226	     27.31906858	      5.55983988	      0.47680770	      9.40123872	      5.69107425	     -9.35221969	    -10.27293675	      1.48679448	     -5.44714951	      3.00524220	      0.11446120	      0.05245137	     11.59042495	     17.37864190	     -9.35221969	     -8.92319620	      0.87263604	     -3.27801059	    -10.26370901	    -12.18664892	      9.69143848	     27.23041348	     90.00000001	      0.00000000	      0.00000000	      9.49641243	    -18.62350915	     21.19906265	     35.61950292	     90.00000001	      0.00000000	      0.00000000
      0.06000000	      3.65782794	      0.10487176	     -0.37090227	     -2.05737739	      0.96974559	      0.26807582	     16.78386865	     -6.70707842	    -11.70852349	     24.73471707	      5.60971235	      0.43170225	      9.20354479	      6.42969803	     -9.32157889	    -10.70869171	      1.83531097	     -5.43401942	      3.02624534	     -0.01563668	      0.05281795	     12.19115662	     17.53748697	     -9.32157889	     -8.66790145	      0.71538459	     -3.42180888	    -10.54695833	    -12.07914516	      9.68886832	     26.85733079	     90.00000001	      0.00000000	      0.00000000	      9.73860785	    -18.83814260	     21.07887128	     36.59284813	     90.00000001	      0.00000000	      0.00000000
      0.07000000	      3.58779364	      0.32409637	     -0.26530626	     -2.04744791	      0.96806502	      0.26839753	     17.05915223	     -6.83154303	    -12.32914188	     22.06146097	      5.57597785	      0.38504513	      8.90814101	      7.28190046	     -9.29519640	    -11.27994089	      2.09622051	     -5.40744814	      3.03310567	     -0.14179609	      0.05293768	     12.80270026	     17.68591698	     -9.29519640	     -8.51976061	      0.62131479	     -3.62910218	    -10.80306275	    -11.95447625	      9.67388066	     26.48588274	     90.00000001	      0.00000000	      0.00000000	      9.94136575	    -19.07587007	     20.96372655	     37.62413904	     90.00000001	      0.00000000	      0.00000000
      0.08000000	      3.65408315	      0.38460352	     -0.11216576	     -2.03744928	      0.96648252	      0.26883604	     17.03318611	     -6.81126245	    -12.94547356	     19.28954855	      5.65102498	      0.33666613	      8.60968276	      8.29215531	     -9.26612385	    -11.99648100	      2.11738943	     -5.25808489	      3.07088277	     -0.16564237	      0.05359702	     13.43680567	     17.85352329	     -9.26612385	     -8.54642881	      0.69897909	     -3.85700866	    -10.98814823	    -11.83107868	      9.63172268	     26.05721099	     90.00000001	      0.00000000	      0.00000000	     10.07261762	    -19.30876631	     20.86495436	     38.80628880	     90.00000001	      0.00000000	      0.00000000
